<svg id="Layer_1" data-name="Layer 1" xmlns="http://www.w3.org/2000/svg" viewBox="0 0 752.14 447.24"><defs><style>.cls-1{fill:#333;}.cls-2{fill:#009de1;}</style></defs><title>logo</title><polygon class="cls-1" points="0 247.61 0 447.24 199.63 447.24 0 247.61"/><polygon class="cls-1" points="255.95 249.68 163.71 0 0 0 0 157.29 255.95 249.68"/><path class="cls-2" d="M974.75,509.39c29.72-11.93,59.44-46.48,59.44-94.85C1034.19,339.16,982.79,292,901,292H545.78L796.4,542.67V542H901.67c46.44,0,72.45,28.27,72.45,67.84s-26,68.47-72.45,68.47H796.4V629.44L543.6,376.64,617.11,581.9,585,614,378.1,542.14,575.25,739.29H907.87c78,0,133.13-44,133.13-126.26C1041,556.5,1008.8,523.21,974.75,509.39Zm-79.27-28.27H796.4V353h99.08c42.73,0,71.83,22.62,71.83,64.07S938.21,481.12,895.48,481.12Z" transform="translate(-288.86 -292.05)"/></svg>