<svg id="Layer_1" data-name="Layer 1" xmlns="http://www.w3.org/2000/svg" viewBox="0 0 97 49.82"><defs><style>.cls-1{fill:#009ce0;}.cls-2{fill:#404041;}</style></defs><title>logo-name</title><path class="cls-1" d="M16,23.8V4.69h-.1L10.79,23.8H8.15L3.06,4.69H3V23.8H.25V.71H4.57L9.5,19h.13L14.47.71H19V23.8Z" transform="translate(0.13 -0.16)"/><path class="cls-1" d="M22.26,23.8V.71H25.2V23.8Z" transform="translate(0.13 -0.16)"/><path class="cls-1" d="M39.17,23.53a6.29,6.29,0,0,1-3.33.83,6.63,6.63,0,0,1-3.46-.91,7.76,7.76,0,0,1-2.58-2.54,12.89,12.89,0,0,1-1.6-3.83,19.66,19.66,0,0,1-.55-4.81,19.33,19.33,0,0,1,.57-4.83A12.68,12.68,0,0,1,29.86,3.6a8,8,0,0,1,2.58-2.53A6.48,6.48,0,0,1,35.84.16a7.54,7.54,0,0,1,3.23.68,5.87,5.87,0,0,1,2.41,2.09l-1.83,2A4.77,4.77,0,0,0,38,3.37a4.23,4.23,0,0,0-2-.51,3.7,3.7,0,0,0-2.32.75,5.71,5.71,0,0,0-1.61,2,11.44,11.44,0,0,0-1,3,19.41,19.41,0,0,0-.33,3.64,19.14,19.14,0,0,0,.33,3.62,11.29,11.29,0,0,0,1,3,5.74,5.74,0,0,0,1.65,2,3.76,3.76,0,0,0,2.33.75A3.62,3.62,0,0,0,38.18,21a5.07,5.07,0,0,0,1.48-1.6l1.76,1.92A6.91,6.91,0,0,1,39.17,23.53Z" transform="translate(0.13 -0.16)"/><path class="cls-1" d="M54.09,23.8V13.14H46V23.8H43.1V.71H46v9.82h8.06V.71H57V23.8Z" transform="translate(0.13 -0.16)"/><path class="cls-1" d="M70.82,23.8l-1.3-5.41H62.83L61.49,23.8h-3L64.33.71h3.88L73.89,23.8ZM66.29,3.45h-.13L63.22,16.07h5.9Z" transform="translate(0.13 -0.16)"/><path class="cls-1" d="M75.4,23.8V.71h9.72V3.32H78.24V10.6h6.42V13H78.24v8.12h7.21V23.8Z" transform="translate(0.13 -0.16)"/><path class="cls-1" d="M87.41,23.8V.71h2.94V21.06h6.52V23.8Z" transform="translate(0.13 -0.16)"/><path class="cls-2" d="M12.16,44a6.32,6.32,0,0,1-.56,2.81,5.47,5.47,0,0,1-1.41,1.83,5.21,5.21,0,0,1-1.92,1,7.68,7.68,0,0,1-2.09.3H-.13V28.71H5.52a9.49,9.49,0,0,1,2,.23,5.47,5.47,0,0,1,1.92.81,4.56,4.56,0,0,1,1.44,1.62,5.55,5.55,0,0,1,.57,2.69,5.17,5.17,0,0,1-.84,3.12,4.57,4.57,0,0,1-2,1.59v.06a4.66,4.66,0,0,1,1.22.51,4.07,4.07,0,0,1,1.13,1,5.53,5.53,0,0,1,.84,1.56A6.23,6.23,0,0,1,12.16,44Zm-4-9.4a3.29,3.29,0,0,0-.25-1.37,2.57,2.57,0,0,0-.66-.9,2.44,2.44,0,0,0-.94-.5,4.09,4.09,0,0,0-1.1-.15h-2v5.92h2a3.49,3.49,0,0,0,1.06-.17,2.5,2.5,0,0,0,.93-.53A2.69,2.69,0,0,0,7.94,36,3.39,3.39,0,0,0,8.19,34.63Zm.51,9.1a3.75,3.75,0,0,0-.3-1.58,3,3,0,0,0-1.82-1.64,3.73,3.73,0,0,0-1.14-.18H3.27V47H5.54a3.73,3.73,0,0,0,1.22-.2,2.76,2.76,0,0,0,1-.6,2.91,2.91,0,0,0,.69-1A3.7,3.7,0,0,0,8.7,43.73Z" transform="translate(0.13 -0.16)"/><path class="cls-2" d="M15.86,50V28.71h9.52V31.9H19.31v5.65h5.62v2.94H19.31v6.28h6.37V50Z" transform="translate(0.13 -0.16)"/><path class="cls-2" d="M38.56,50l-6-15h-.09l.06,15H29.25V28.71h4.12l6,15.11h.09l0-15.11h3.12V50Z" transform="translate(0.13 -0.16)"/><path class="cls-2" d="M63.83,50H59.69L56.74,34h-.06L53.74,50H49.59L45.54,28.71H49.2l2.73,16.52h.12l2.85-16.52h3.78l2.94,16.52h.06l2.73-16.52h3.48Z" transform="translate(0.13 -0.16)"/><path class="cls-2" d="M79.59,50l-1.05-4.51H73L71.87,50h-3.6l5.29-21.27h4.6L83.34,50ZM75.83,32.11h-.12L73.4,42.65h4.69Z" transform="translate(0.13 -0.16)"/><path class="cls-2" d="M91.48,41.84V50H87.93V41.84L82.62,28.71h3.91l3.18,9.49.09-.06L93,28.71h3.81Z" transform="translate(0.13 -0.16)"/></svg>